<?xml version="1.0" encoding="UTF-8" standalone="no"?>
<!-- Created with Inkscape (http://www.inkscape.org/) -->

<svg
   width="123.32006mm"
   height="123.32mm"
   viewBox="0 0 123.32006 123.32"
   version="1.1"
   id="svg1"
   xml:space="preserve"
   xmlns="http://www.w3.org/2000/svg"
   xmlns:svg="http://www.w3.org/2000/svg"><defs
     id="defs1" /><g
     id="layer5"
     transform="translate(1173.8456,-1595.6032)"><path
       style="fill:#ffb74d;fill-opacity:1;stroke-width:1.81994"
       d="m -1113.6308,1595.7816 8.9118,-0.1783 4.3354,0.9004 4.3355,0.9002 3.1312,1.0523 3.1311,1.0522 4.0412,1.8859 4.041,1.8857 3.9075,2.6071 3.9071,2.6074 3.7297,3.4462 3.7299,3.4461 3.5076,4.6561 3.5075,4.6561 2.2442,4.3458 2.2442,4.346 1.2828,3.8179 1.2826,3.818 0.9174,4.7288 0.9175,4.729 v 3.8738 3.8735 l -0.4221,-0.1601 -0.4219,-0.16 -8.9434,-4.3319 -8.9435,-4.3322 -0.8314,-3.3691 -0.8314,-3.3694 -2.5907,-5.1727 -2.5907,-5.1728 -4.1791,-4.3879 -4.1791,-4.3879 -2.6634,-1.805 -2.6635,-1.8053 -2.8903,-1.4425 -2.8903,-1.4425 -3.1311,-1.0055 -3.1312,-1.0054 -2.8584,-0.506 -2.8583,-0.5058 h -4.5082 -4.5081 l -3.7131,0.763 -3.713,0.7631 -3.5088,1.3577 -3.5088,1.3579 -3.3398,1.9826 -3.3398,1.9826 -3.9222,3.7191 -3.9221,3.7191 46.1771,22.5527 46.1772,22.5528 0.1891,0.1783 0.1892,0.1783 -1.0953,3.0198 -1.0953,3.0198 -2.0599,4.0914 -2.0601,4.0914 -2.4974,3.5347 -2.4975,3.5347 -3.4348,3.613 -3.4348,3.6129 -4.108,3.0882 -4.1081,3.088 -4.0946,2.1185 -4.0947,2.1188 -2.6032,1.0246 -2.6033,1.025 -4.6225,1.2243 -4.6225,1.2243 -8.0459,0.2583 -8.0458,0.2586 -4.7197,-0.846 -4.7197,-0.8458 -3.6129,-1.1742 -3.6129,-1.1744 -4.0411,-1.8916 -4.0411,-1.8916 -4.1481,-2.7503 -4.1481,-2.7499 -4.8346,-4.8309 -4.8345,-4.8307 -2.7002,-4.0912 -2.7002,-4.0914 -1.6753,-3.3694 -1.6752,-3.3693 -1.3099,-3.814 -1.31,-3.814 -0.9208,-4.7467 -0.9209,-4.7467 v -4.0743 -4.0743 l 0.3613,0.02 0.3612,0.018 9.3664,4.6738 9.3664,4.6739 1.1335,4.061 1.1335,4.0611 2.0142,3.8685 2.0143,3.8685 2.8262,3.5104 2.8262,3.5103 3.3933,2.653 3.3933,2.6529 2.9437,1.6421 2.9437,1.642 4.3355,1.4458 4.3355,1.446 4.7047,0.4781 4.7049,0.4781 4.207,-0.4426 4.2069,-0.4426 3.3143,-0.9553 3.3143,-0.9553 3.0336,-1.4184 3.0337,-1.4185 3.0456,-2.0563 3.0456,-2.0566 3.0732,-3.0569 3.0731,-3.0571 -0.1829,-0.1818 -0.1828,-0.182 -33.7203,-16.4711 -33.7203,-16.4714 -12.6515,-6.1645 -12.6516,-6.1646 1.1462,-3.0425 1.1462,-3.0428 1.5625,-3.1223 1.5625,-3.1224 2.6103,-3.9455 2.6102,-3.9455 3.6667,-3.8946 3.6666,-3.8946 4.1476,-3.1176 4.1477,-3.1178 4.0946,-2.1186 4.0946,-2.1185 2.6033,-1.0249 2.6033,-1.0248 4.6225,-1.2307 4.6225,-1.2305 z"
       id="path4-5-0-6" /></g></svg>
